<svg id="Laag_1" data-name="Laag 1" xmlns="http://www.w3.org/2000/svg" xmlns:xlink="http://www.w3.org/1999/xlink" viewBox="0 0 567.27 480.26"><defs><style>.cls-1,.cls-14,.cls-20,.cls-5{fill:none;}.cls-2{fill:url(#Naamloos_verloop_32);}.cls-3{fill:#543a29;}.cls-4{fill:#e25923;}.cls-5{stroke:#4c4a48;stroke-linecap:round;stroke-linejoin:round;stroke-width:7px;}.cls-6{fill:#ad7e57;}.cls-7{fill:#c99e7d;}.cls-8{fill:#933f22;}.cls-9{fill:#f4cdb3;}.cls-10{fill:#7f5c44;}.cls-11{fill:#666;}.cls-12{clip-path:url(#clip-path);}.cls-13{fill:#999;}.cls-14{stroke:#666;}.cls-14,.cls-20{stroke-miterlimit:10;}.cls-15{clip-path:url(#clip-path-2);}.cls-16{fill:#c17333;}.cls-17{clip-path:url(#clip-path-3);}.cls-18{fill:#5d9120;}.cls-19{fill:#94d342;}.cls-20{stroke:#94d342;stroke-width:2px;}.cls-21{fill:#466819;}.cls-22{clip-path:url(#clip-path-4);}.cls-23{fill:#e89442;}</style><linearGradient id="Naamloos_verloop_32" x1="58.15" y1="66.1" x2="405.66" y2="413.6" gradientUnits="userSpaceOnUse"><stop offset="0.1" stop-color="#933a8f"/><stop offset="1" stop-color="#2fc3f5"/></linearGradient><clipPath id="clip-path"><polygon class="cls-1" points="303.97 268.29 364.69 299.23 445.59 257.98 384.93 227.03 303.97 268.29"/></clipPath><clipPath id="clip-path-2"><path class="cls-1" d="M0,389.91V81.49L82.45,71.22c0-52.61,55.08-86.66,101.53-62.76L511.77,177.09c50.81,26.14,50.81,99.4,0,125.53L184,471.24C137.52,495.13,0,442.52,0,389.91Z"/></clipPath><clipPath id="clip-path-3"><path class="cls-1" d="M125.22,313.86c-6.46-14.49-21.17-21.49-31.59-32.77-19.43-21-22.22-54.57-37.26-79.7C48.94,189,38.74,179,29.57,168.12s-17.69-23.4-20.28-37.9c-1.45-8.09-.86-16.77,2.8-23.62a26.89,26.89,0,0,1,17-13.12c6.93-1.82,14.33-1.17,21.42.73,6.45,1.73,12.87,4.58,18,9.53,6.74,6.52,10.55,16,13.88,25.23,12.22,33.83,21,68.93,31.8,103.31,4.82,15.34,10.39,31.16,21,42.36Z"/></clipPath><clipPath id="clip-path-4"><path class="cls-1" d="M155.29,375.62c1.36-24.51,20.9-43.69,30.75-66.19,18.35-41.92,1.68-91,10.28-135.93,4.25-22.22,14.56-42.73,22.63-63.86S233,65.46,228,43.38c-2.77-12.33-9.22-24.19-19.5-31.53s-23.55-9.56-36-7.74-24.1,7.42-34.44,14.58c-9.41,6.52-18.07,14.59-23.27,24.8C108,57,107.75,72.73,108.16,87.84c1.5,55.43,9.37,110.48,13.54,165.77,1.86,24.67,2.79,50.5-7.45,73Z"/></clipPath></defs><path class="cls-2" d="M82.45,408.47V71.22c0-52.61,55.08-86.66,101.53-62.76L511.77,177.09c50.81,26.14,50.81,99.4,0,125.53L184,471.24C137.52,495.13,82.45,461.09,82.45,408.47Z"/><path class="cls-3" d="M244.26,277.65c-10.12-41.25-14.54-99.11,0-108.29s50.59-11.85,50.59-11.85l5,99.51Z"/><path class="cls-4" d="M301.85,131.66c-3.24,1.74-16.89,3.4-25,8.09s-16.47,7.82-18,20.43S249.42,233.7,251.4,266c41.16,0,79.3-2.76,79.3-2.76s6.26-62.11,12.09-78.78,7.61-27.41,3.86-31.89-20.22-14.34-20.22-14.34Z"/><polyline class="cls-5" points="321.04 350.67 321.04 462.24 266.32 322.77 211.61 406.45 210.33 294.42"/><polyline class="cls-5" points="539.89 239.32 539.89 350.89 485.16 211.42 430.46 295.1 429.17 183.07"/><polygon class="cls-6" points="321.06 378.56 567.27 250.12 567.27 243.16 184.26 298.94 184.26 306.65 321.06 378.56"/><polygon class="cls-7" points="184.26 298.94 321.04 368.66 567.27 243.16 430.44 173.41 184.26 298.94"/><path class="cls-8" d="M414.07,219.2c3.76.62,6.48,3.17,5.46,6.05s-2.19,7.08-5.46,7.45a49.23,49.23,0,0,1-7.78,0l-7.65-2.6v-7.39s2-3.06,3.23-3.74a14.17,14.17,0,0,1,5.26-1.19C407.64,218,414.07,219.2,414.07,219.2Z"/><path class="cls-9" d="M409.34,219c1.19.17,30.41,6.28,30.41,6.28l-4.42,16L401.87,230.1l2.37-8.07Z"/><path class="cls-7" d="M301.73,104.74s-3.64-4.8-3.75,1.35.11,13.24,4.17,12.4S301.73,104.74,301.73,104.74Z"/><path class="cls-7" d="M339.35,112c2.81-3.4,5.11-3.75,4.8-1.77s-1.67,12.82-4.28,12.4-2.39-6.35-2.39-6.35Z"/><path class="cls-7" d="M327.18,144l-.54-.17,3.23-8.86L303,122.26c-.23,4.78-2.1,15-2.1,15l-3,.93C306.48,144.39,316.91,147.64,327.18,144Z"/><path class="cls-10" d="M304.41,121s-4.23-10.85-3.68-19.87,6.07-19.5,6.07-19.5l34.68,5.7s4.33,2.21,2.85,8.84-3.12,22.5-6.25,27.25S304.41,121,304.41,121Z"/><path class="cls-3" d="M307.57,84c5.88,3.57,18.65,7,24.28,6.15s9.68-1.46,9.63-3.86A11.21,11.21,0,0,0,336.43,77a19.18,19.18,0,0,1,1,6,14.28,14.28,0,0,0-4.58-7.5c1.36,4.17,1,5.1,1,5.1s-.16-4.58-9.4-7.29c3.57,2.81,3.46,4,3.46,4s-4-4.07-9.06-4.48-11.26,3-11.88,5.21S305.6,82.75,307.57,84Z"/><path class="cls-9" d="M324.47,88.42c8.7,1.11,11.22-.92,12.87,0s5.71,1.1,3.5,18.4-5.15,36.42-20.24,34.58-19-20.23-18.4-27.78,4.42-28.7,9.2-28.15S315.82,87.31,324.47,88.42Z"/><path class="cls-9" d="M338,147.46,327.18,144c-10.27,3.65-20.7.4-29.23-5.81l-7.37,2.3,2,31.68,52.59,2.19Z"/><path class="cls-8" d="M345,213.38c0-4.52-.28-9.25-4.22-11-5-2.29-6.37,2.6-10.12,3.23s-17.3,4.06-20.84,4.48a10.62,10.62,0,0,0-5.1,1.67s-7.82-20.63-13.76-29.08c-1.67-10.62-5.21-22.71-18.55-24.8-6.15-.73-9.26-.35-9.69,2.39-1.63,10.37.62,27.11.62,27.11s18.24,45.22,27.2,48.35c3.35,1.16,8.69,1.78,14.44,1.86,4.48-3.56,9.47-6.25,14.47-9.58C328.47,223,334.63,215.17,345,213.38Z"/><path class="cls-6" d="M319.49,228c-5,3.33-10,6-14.47,9.58,9.64.14,20.41-1.21,24.85-3.95C337,229.22,344.41,218.54,345,217c0-1.14,0-2.36,0-3.6C334.63,215.17,328.47,223,319.49,228Z"/><path class="cls-4" d="M295.28,133.59s-2.51,6.53,1.56,12.36,12.71,14.8,21.46,14.49,15.24-14.33,12-19.88c6.76,4.4,10.51,7,10.51,7l5.2,26.77-2.28,5.37-53.15-5.37-7.08-30.48Z"/><path class="cls-8" d="M291,178.67c7.45,7.52,12.5,15.11,15.8,25.27,7.22-.47,22.15-5.22,29.53-7.57,3.81-1.21,1.93-9.83,2.42-10,1.64-.55,2,5.55,2,5.55l-2,10.72L303.19,213Z"/><path class="cls-4" d="M346.65,152.52c9.29,12.21,29.43,58.67,29.43,58.67s24,2.51,38,8c-5.72,1.14-9.84,5.26-10.07,8.47a6.07,6.07,0,0,0,2.29,5l-47.14-9.38-22-37.49Z"/><path class="cls-9" d="M337.14,199.51c3.46-4.58,3.61-7.59,3.61-7.59s8.34,1.33,10.75,5.61a41.48,41.48,0,0,1,2.61,5.89,5.77,5.77,0,0,1-2.95,7.21l-3.45,1.63Z"/><path class="cls-4" d="M262.76,156.26c-1.63,10.37-1.67,26.79-1.67,26.79s24.18,46.17,33.14,49.29,28.55,1.67,35.64-2.71,14.8-14.27,20.11-15.32c0-5.31-4.14-13.65-9.16-15.94s-6.37,2.6-10.12,3.23-17.3,4.06-20.84,4.48a10.62,10.62,0,0,0-5.1,1.67s-7.82-20.63-13.76-29.08c-1.67-10.62-5.21-22.71-18.55-24.8C266.3,153.14,263.19,153.52,262.76,156.26Z"/><polygon class="cls-11" points="303.97 268.29 304.77 273.73 363.41 303.68 445.59 262.49 445.59 257.98 303.97 268.29"/><g class="cls-12"><polygon class="cls-13" points="303.97 268.29 364.69 299.23 445.59 257.98 384.93 227.03 303.97 268.29"/><line class="cls-14" x1="408.1" y1="234.55" x2="315.25" y2="281.88"/><line class="cls-14" x1="415.16" y1="238.17" x2="322.31" y2="285.5"/><line class="cls-14" x1="422.22" y1="241.78" x2="329.37" y2="289.11"/><line class="cls-14" x1="429.28" y1="245.4" x2="336.43" y2="292.73"/><line class="cls-14" x1="436.34" y1="249.02" x2="343.49" y2="296.35"/><line class="cls-14" x1="443.39" y1="252.63" x2="350.55" y2="299.96"/><line class="cls-14" x1="321.95" y1="278.4" x2="394.88" y2="315.56"/><line class="cls-14" x1="327.89" y1="275.41" x2="400.81" y2="312.56"/><line class="cls-14" x1="333.82" y1="272.41" x2="406.75" y2="309.56"/><line class="cls-14" x1="339.76" y1="269.41" x2="412.69" y2="306.57"/><line class="cls-14" x1="345.7" y1="266.41" x2="418.63" y2="303.57"/><line class="cls-14" x1="351.64" y1="263.41" x2="424.56" y2="300.57"/><line class="cls-14" x1="357.58" y1="260.42" x2="430.5" y2="297.57"/><line class="cls-14" x1="363.51" y1="257.42" x2="436.44" y2="294.58"/><line class="cls-14" x1="369.45" y1="254.42" x2="442.38" y2="291.58"/><line class="cls-14" x1="375.39" y1="251.42" x2="448.32" y2="288.58"/><line class="cls-14" x1="381.33" y1="248.43" x2="454.25" y2="285.58"/><line class="cls-14" x1="387.26" y1="245.43" x2="460.19" y2="282.59"/><line class="cls-14" x1="393.2" y1="242.43" x2="466.13" y2="279.59"/><line class="cls-14" x1="399.14" y1="239.43" x2="472.07" y2="276.59"/><line class="cls-14" x1="405.08" y1="236.44" x2="478" y2="273.59"/><polygon class="cls-13" points="325.77 274.93 363.3 294.05 435.42 257.29 398.09 238.28 403.37 235.62 447.98 257.62 363.75 300.33 317.39 277.51 325.77 274.93"/></g><polygon class="cls-13" points="352.68 263.37 358.62 266.38 381.09 254.93 375.17 251.92 352.68 263.37"/><polygon class="cls-14" points="360.27 243.35 372.92 250.06 350.92 261.34 337.75 254.82 360.27 243.35"/><polygon class="cls-11" points="364.7 299.23 387.92 246.69 468.82 205.44 471 208.01 366.88 301.81 364.7 299.23"/><polygon class="cls-13" points="366.81 301.98 390.1 249.26 471 208.01 447.88 261.68 366.81 301.98"/><line class="cls-13" x1="468.82" y1="205.44" x2="471" y2="208.01"/><g class="cls-15"><path class="cls-16" d="M186.14,342.85V323.06c0-2.89-14-9.87-38.82-9.87s-38.8,6.4-38.8,9.87v19.8a85.61,85.61,0,0,1,38.81-9.9A85.68,85.68,0,0,1,186.14,342.85Z"/><g class="cls-17"><rect class="cls-18" x="-12.29" y="86.3" width="148.25" height="267.26" transform="translate(165.57 423.48) rotate(168.7)"/><path class="cls-19" d="M142.83,298.78c-22.43-12.31-38.19-34.08-49.16-56.68a284.47,284.47,0,0,1-15.46-40.45c-2.15-7-4.14-14-6.06-21S68.32,166.33,66,159.3c-4.77-14.13-11.81-28.38-24.28-37.23a2.27,2.27,0,0,0-3.07.81,2.3,2.3,0,0,0,.8,3.08c10.63,7.55,17,19.88,21.28,31.86,5,13.84,8.11,28.3,12.36,42.36,8,26.6,18.44,53,35.88,75,8.74,11,19.28,20.72,31.63,27.5,2.54,1.39,4.82-2.5,2.27-3.89Z"/><path class="cls-20" d="M74.8,88.71c-1.38,2.4-21.06,49.5-21.06,49.5"/><path class="cls-20" d="M108.8,104.56c-3.61,6.1-51,40.66-51,40.66"/><path class="cls-20" d="M-.59,174.25C12,176,67.5,172.16,67.5,172.16"/><line class="cls-20" x1="81.55" y1="218.82" x2="125.56" y2="160.56"/><line class="cls-20" x1="94.84" y1="249.38" x2="15.61" y2="229.29"/><line class="cls-20" x1="99.71" y1="257.98" x2="21.08" y2="264.12"/><line class="cls-20" x1="112.67" y1="276.2" x2="58.07" y2="296.38"/><line class="cls-20" x1="78.83" y1="210.95" x2="26.02" y2="205.18"/><path class="cls-20" d="M50,133c-3,.7-76.36,9-76.36,9"/><path class="cls-20" d="M103,263.24c4.24-2.72,34.63-42.11,34.63-42.11"/><line class="cls-20" x1="107.87" y1="270.13" x2="137.05" y2="234.79"/><path class="cls-21" d="M108.82,207.63s15.43,66.93-.77,103.39l24.83,17.52s16.31-114.12,14.35-114.09S108.82,207.63,108.82,207.63Z"/></g><g class="cls-22"><rect class="cls-18" x="69" y="-2.19" width="260.29" height="410.57" transform="translate(-35.94 42.96) rotate(-11.3)"/><path class="cls-19" d="M121.73,369.12a165.27,165.27,0,0,0,30.68-49.63,222.58,222.58,0,0,0,14.3-57.66c2.71-23.06,2.43-46.37.76-69.49-.84-11.6-2-23.18-3.36-34.73s-2.94-23.21-3.69-34.89c-1.34-20.7.11-42.58,10.66-61a70,70,0,0,1,4-6.21c1.7-2.34-2.2-4.59-3.89-2.27C159.14,70,155.35,91,155.49,111.26c.08,11.71,1.38,23.36,2.77,35S161,169.15,162,180.64c2.1,23.11,3.08,46.39,1.32,69.55a232.21,232.21,0,0,1-12,59.58c-6.41,18.26-15.61,35.73-28,50.68q-2.31,2.81-4.77,5.49c-1.94,2.13,1.23,5.32,3.19,3.18Z"/><path class="cls-20" d="M95,26.3c3.76,2.51,65.62,56.47,65.62,56.47"/><path class="cls-20" d="M49.65,70.16c9.73,6.31,108.87,25,108.87,25"/><path class="cls-20" d="M272,99.2c-19.44,10.41-112.27,40.13-112.27,40.13"/><line class="cls-20" x1="166.33" y1="214.01" x2="57.76" y2="159.71"/><line class="cls-20" x1="164" y1="265.5" x2="280.4" y2="187.05"/><line class="cls-20" x1="161.5" y1="280.7" x2="293.51" y2="239.62"/><line class="cls-20" x1="151.93" y1="314.58" x2="253.65" y2="308.49"/><line class="cls-20" x1="165.79" y1="201.19" x2="248.18" y2="159.65"/><path class="cls-20" d="M163.44,73.12c5.31-.9,130.11-35.62,130.11-35.62"/><path class="cls-20" d="M159.41,290.22c-8.63-1.15-83-37.46-83-37.46"/><line class="cls-20" x1="155.89" y1="302.99" x2="86" y2="271.64"/><path class="cls-21" d="M108.69,315.27A73.36,73.36,0,0,0,183,319.36c1-.52,7.2,7.24,7.81,8.21a3.28,3.28,0,0,1,.22,2.15,122.79,122.79,0,0,0,.69,33.6c-14.07.82-28.16-.87-42.15-2.57l-55.21-6.69a137.5,137.5,0,0,1,8.41-44Z"/></g><path class="cls-23" d="M111.86,333v36.17c0,5.29,12.84,18.05,35.48,18.05s35.46-11.71,35.46-18.05V333s-15.64,18.1-35.47,18.1S111.86,333,111.86,333Z"/><path class="cls-16" d="M111.86,328.73v18.09c0,2.65,12.85,9,35.5,9s35.47-5.86,35.47-9v-18.1a78.19,78.19,0,0,1-35.48,9.06A78.27,78.27,0,0,1,111.86,328.73Z"/><path class="cls-23" d="M108.54,322.73v19.79c0,2.9,14,9.88,38.82,9.88s38.8-6.41,38.8-9.88v-19.8a85.61,85.61,0,0,1-38.81,9.9A85.62,85.62,0,0,1,108.54,322.73Z"/></g></svg>