<svg id="Laag_1" data-name="Laag 1" xmlns="http://www.w3.org/2000/svg" xmlns:xlink="http://www.w3.org/1999/xlink" viewBox="0 0 489.01 480.26"><defs><style>.cls-1{fill:none;}.cls-2{fill:url(#Naamloos_verloop_32);}.cls-3{clip-path:url(#clip-path);}.cls-4{fill:#4c4a48;}.cls-5{fill:#933f22;}.cls-6{fill:#965f39;}.cls-7{fill:#e25923;}.cls-8{fill:#c99e7d;}.cls-9{fill:#f4cdb3;}.cls-10{fill:#999;}.cls-11{fill:#bababa;}.cls-12{fill:#fff;}</style><linearGradient id="Naamloos_verloop_32" x1="-17.04" y1="66.1" x2="330.46" y2="413.6" gradientTransform="translate(475.8 479.69) rotate(180)" gradientUnits="userSpaceOnUse"><stop offset="0.1" stop-color="#933a8f"/><stop offset="1" stop-color="#2fc3f5"/></linearGradient><clipPath id="clip-path"><path class="cls-1" d="M531.63,72.73,468.55,408.47c0,52.61-55.08,86.66-101.53,62.76L39.23,302.6C-11.58,276.46,28.6,33.64,79.41,7.5L367,8.45C413.48-15.44,531.63,20.11,531.63,72.73Z"/></clipPath></defs><path class="cls-2" d="M468.55,71.22V408.47c0,52.61-55.08,86.66-101.53,62.76L39.23,302.6c-50.81-26.14-50.8-99.4,0-125.53L367,8.45C413.48-15.44,468.55,18.6,468.55,71.22Z"/><g class="cls-3"><path class="cls-4" d="M268.08,85.12c-.32-.88-15.92-76.83-15.92-76.83L399.47,29.48,353.72,106.9Z"/><polygon class="cls-5" points="254.41 215.24 150.9 263.87 181.67 291.89 247.04 272.33 254.41 215.24"/><path class="cls-6" d="M310.22,71c21.13,1.47,31.33,1,39.67,18,21.65-5.87,48.45,3,43.5,17,9.12,13.56,10.69,43-14.6,49.28,20.68,21.12-6.78,40.15-6.78,40.15s14.86,7.56,13,23.21-21.38,19-21.38,19S258.32,187.6,243.2,179.25s-18.51-26.85-7.3-32.59c-6.63-13.56,5.46-29.94,18.25-23.46-11.21-14.35-7.06-24.65,2.59-27.78-1.57-11.21,1-22.77,12.5-17.3,6.25-18,21.95-14.09,26.38-11S310.22,71,310.22,71Z"/><path class="cls-5" d="M336.23,249.18c-33.11,20.08-63.87,44.38-98,62.77.62,5,1.12,11.47,1.45,18.44C279.74,313.89,322.69,293.19,336.23,249.18Z"/><path class="cls-5" d="M292.89,237.87c4.4-3.77,9.42-8.79,6.28-14.44-3.77-6.91-13.82-3.77-18.84.62-18.72,18.13-33.62,43.87-58.4,52.41a42.87,42.87,0,0,0,3.58,10.22,38.36,38.36,0,0,0,15.24-7.35A420.06,420.06,0,0,1,292.89,237.87Z"/><path class="cls-7" d="M261.48,224.68c-17.19-3.34-26,10.75-35.09,23.22-4.75,10.19-6.36,19.4-4.46,28.56,22.77-7.85,37.2-30.21,53.91-47.85C271.2,228.62,266.34,225.57,261.48,224.68Z"/><path class="cls-5" d="M286,211.49a28.73,28.73,0,0,0-8-10.89c-6.6,1.86-14.09,3.88-22.56,6.07C241.82,222.73,232,236,226.39,247.9c9.05-12.47,17.9-26.56,35.09-23.22,4.86.89,9.72,3.94,14.36,3.93,1.48-1.56,3-3.08,4.49-4.56a20.14,20.14,0,0,1,6.11-3.58A12.26,12.26,0,0,0,286,211.49Z"/><path class="cls-7" d="M352.46,417.35c-10.29-28.42-9.8-60.26,6.36-95.54s6.86-97,4.41-119.06-25.47-22.53-39.73-17.14c0,0-9.92,5-45.49,15a28.73,28.73,0,0,1,8,10.89,12.26,12.26,0,0,1,.46,9c4.79-1.79,10.19-1.71,12.73,3,3.14,5.65-1.88,10.67-6.28,14.44a420.06,420.06,0,0,0-52.14,41.46,38.36,38.36,0,0,1-15.24,7.35,71.32,71.32,0,0,0,10.34,15c.94,1.09,1.76,4.86,2.42,10.23,34.09-18.39,64.85-42.69,98-62.77-13.54,44-56.49,64.71-96.51,81.21.91,18.67.73,41.09-.93,50.21-2.94,16.17-16.17,38.71-23.52,72s10.29,63.19,10.29,63.19S374.5,519.75,377.44,494,362.74,445.76,352.46,417.35Z"/><path class="cls-8" d="M265.19,218.37c-4.26,10.16,11.13,13.55,18.69,6.25,1.44-1.39,3.23-3.18,5.22-5.18a164.85,164.85,0,0,0-21-7.79C267,214,266.05,216.33,265.19,218.37Z"/><path class="cls-9" d="M314.37,195.94c6-3.39,19.83-9.91,19.83-9.91s-5.57-13.68-7-17.49-48.83-.88-48.83-.88c5.24,8.73-1.28,23.85-1.28,23.85s-4.88,10.66-9,20.14a164.85,164.85,0,0,1,21,7.79C297.51,211,309.51,198.68,314.37,195.94Z"/><path class="cls-8" d="M327.78,102.25c8.09,9.91-4.68,17-7.29,32.92S332.65,177.48,334.2,186c1.25,6.91-6.26,3.39-6.26,3.39s-1.05-13.45-4.44-14.94-19,6.08-23.2,7.9-12.51-.26-12.51-.26l-7.41-4.57a19.69,19.69,0,0,0-2-9.89C275.82,162.17,327.78,102.25,327.78,102.25Z"/><path class="cls-9" d="M290.58,88.41c10.9-2.62,37.73-6.25,42.78,17.55s-1.57,49-11.71,58.11c-9.67,8.7-22.45,13.27-29.71,12.26s-18.67-11.52-21.49-19-4-25.05-.79-31.51,1.76-18,4.58-22.29S279.69,91,290.58,88.41Z"/><path class="cls-9" d="M213.48,274.88l-22.69.07-17.31,15.66s14.45,22.79,32.43,26C213.48,284.51,213.48,274.88,213.48,274.88Z"/><path class="cls-6" d="M309.55,85c-4.24,3.63-12.85,7.33-20.38,7.67s-14.93,10.89-14.93,10.89a35.67,35.67,0,0,1-3.43-4.84c-.6-1.41,10.09-17.55,10.7-17.75s17.35-2.83,17.35-2.83Z"/><path class="cls-6" d="M310.36,82.76c-1.62,6.86,11.7,15.74,11.7,15.74s13.52,6.86,14.73,17.15l-4.24-27.44Z"/><path class="cls-10" d="M276.78,84.24c3.94-9.13,24-12.66,34.85-9.42s25.62,13.59,23.67,22.37l9.75-30.25a13.19,13.19,0,0,0-4.36-14.43,62.26,62.26,0,0,0-22.59-11,47,47,0,0,0-31.35,2.65,10.5,10.5,0,0,0-6.1,8.32Z"/><path class="cls-8" d="M391.81,34.54a29.26,29.26,0,0,0,6.85,37.11c10.87,9.14,25.53,11.06,39.24,10.29,9.69-.54,19.29-2.15,29-2.64,1.92-.09,1.93-3.09,0-3-15.41.78-31.17,4.74-46.57,1.85C408.77,76,396.63,69.67,392.5,57.93a26.7,26.7,0,0,1,1.9-21.87,1.5,1.5,0,0,0-2.59-1.52Z"/><path class="cls-8" d="M466.29,79a68.21,68.21,0,0,1,11.07.16,1.13,1.13,0,0,0,0-2.25,68.21,68.21,0,0,0-11.07-.16,1.16,1.16,0,0,0-1.12,1.13A1.12,1.12,0,0,0,466.29,79Z"/><path class="cls-8" d="M464.69,79.12a16.93,16.93,0,0,0,5-1.49,30.06,30.06,0,0,1,5.59-1.54,62.92,62.92,0,0,1,11.56-.64,1.13,1.13,0,0,0,0-2.25,69.67,69.67,0,0,0-11.37.59,31.62,31.62,0,0,0-5.43,1.32c-1.76.62-3.47,1.62-5.36,1.76-1.43.1-1.44,2.35,0,2.25Z"/><path class="cls-8" d="M464.6,78.78a13.74,13.74,0,0,0,3-1.36,33.32,33.32,0,0,0,2.7-2.07,12.64,12.64,0,0,1,5.86-2.1,1.13,1.13,0,1,0-.6-2.17,14.39,14.39,0,0,0-6.1,2.11c-.89.64-1.68,1.4-2.58,2a11.27,11.27,0,0,1-2.85,1.4c-1.37.44-.79,2.61.6,2.17Z"/><path class="cls-8" d="M465.44,78.93c2.67-.05,5.16,1.22,7.62,2.11A49.53,49.53,0,0,0,481,83.26c1.42.25,2-1.92.6-2.17a50.12,50.12,0,0,1-8.21-2.32c-2.58-1-5.12-2.14-7.93-2.09a1.13,1.13,0,0,0,0,2.25Z"/><path class="cls-8" d="M463,79.17a11.9,11.9,0,0,1,5.24,1.12A44.63,44.63,0,0,0,472.94,83a1.13,1.13,0,0,0,1.38-.79,1.15,1.15,0,0,0-.78-1.38c-1.65-.67-3-1.89-4.61-2.68a14.91,14.91,0,0,0-5.94-1.2A1.13,1.13,0,0,0,461.87,78,1.15,1.15,0,0,0,463,79.17Z"/><polygon points="146.75 217.77 146.75 206.91 146.75 196.04 146.75 185.19 146.75 174.31 146.75 163.46 146.75 152.59 146.75 141.72 146.75 130.86 146.75 119.99 146.75 109.13 146.75 98.26 146.75 98.26 146.75 98.26 157.62 98.26 157.62 87.4 146.75 87.4 146.75 87.4 146.75 76.53 135.88 76.53 135.88 87.4 135.88 98.26 135.89 98.26 135.89 109.13 135.89 119.99 135.89 130.86 135.89 141.72 135.89 152.59 135.89 163.46 135.89 174.31 135.89 185.19 135.89 196.04 135.89 206.91 135.89 217.77 135.89 228.64 135.89 239.5 146.75 239.5 146.75 228.64 146.75 217.77"/><polygon points="146.75 239.5 135.88 239.5 135.88 250.37 146.75 250.37 146.75 250.37 157.62 250.37 157.62 239.5 146.75 239.5 146.75 239.5"/><rect x="157.62" y="228.64" width="10.86" height="10.86"/><rect x="168.47" y="217.77" width="10.87" height="10.87"/><rect x="179.34" y="206.91" width="10.86" height="10.86"/><rect x="157.62" y="98.26" width="10.86" height="10.87"/><rect x="168.47" y="109.13" width="10.87" height="10.86"/><rect x="179.34" y="119.99" width="10.86" height="10.87"/><rect x="190.2" y="130.86" width="10.87" height="10.86"/><rect x="201.07" y="141.72" width="10.86" height="10.87"/><rect x="211.93" y="152.59" width="10.87" height="10.87"/><rect x="222.8" y="163.46" width="10.86" height="10.86"/><rect x="233.66" y="174.31" width="10.87" height="10.87"/><rect x="244.53" y="185.19" width="10.87" height="10.86"/><polygon points="255.39 196.04 244.53 196.04 244.53 206.91 255.39 206.91 266.26 206.91 266.26 196.04 255.39 196.04"/><polygon points="222.8 196.04 211.93 196.04 211.93 206.91 211.93 217.77 222.8 217.77 222.8 206.91 233.66 206.91 244.53 206.91 244.53 196.04 233.66 196.04 222.8 196.04"/><polygon points="211.93 261.23 211.93 272.1 222.8 272.1 233.66 272.1 233.66 261.23 222.8 261.23 211.93 261.23"/><polygon points="222.8 239.5 233.66 239.5 233.66 228.64 233.66 217.77 222.8 217.77 222.8 228.64 222.8 239.5"/><polygon points="233.66 261.23 244.53 261.23 244.53 250.37 244.53 239.5 233.66 239.5 233.66 250.37 233.66 261.23"/><polygon points="201.07 217.77 190.2 217.77 190.2 228.64 190.2 239.5 201.07 239.5 201.07 228.64 201.07 217.77"/><polygon points="211.93 239.5 201.07 239.5 201.07 250.37 201.07 261.23 211.93 261.23 211.93 250.37 211.93 239.5"/><path class="cls-11" d="M220.65,256.09c4.38-3.89,8.67-7.69,13-11.36V239.5H222.8v-2.6c-3.7,2.34-7.36,4.68-10.87,7.27V259A10.73,10.73,0,0,0,220.65,256.09Z"/><path class="cls-12" d="M220.65,256.09a10.73,10.73,0,0,1-8.72,2.86v2.28h21.73v-16.5C229.32,248.4,225,252.2,220.65,256.09Z"/><path class="cls-12" d="M222.8,217.77h-2.59c-5.46,5.17-12.53,8-19.14,11.65V239.5h10.86v4.67c3.51-2.59,7.17-4.93,10.87-7.27Z"/><path class="cls-11" d="M220.21,217.77h-8.28V205.53c-7.61,2.08-14.2,6.87-20.34,12.24h9.48v11.65C207.68,225.75,214.75,222.94,220.21,217.77Z"/><path class="cls-12" d="M211.93,196h32.6V185.19H233.66V174.31H222.8V163.46H211.93V152.59H201.07V141.72H190.2V130.86H179.34V120H168.47V109.13H157.62V98.26H146.74V239.5h10.88V228.64h10.85V217.77h10.87V206.91H190.2v10.86h1.39c6.14-5.37,12.73-10.16,20.34-12.24Z"/><path class="cls-7" d="M338.15,182.77c-8.63,1-31.92,10.89-59.77,51.66s-63.17,34.35-68.62,37.24S193.07,286.11,193.39,299s12.38,27,35.88,25.68,84.49-51,92.52-54.89,33.38-22.79,34-44.3S338.15,182.77,338.15,182.77Z"/><path class="cls-9" d="M159,257.48s18.25-21.38,28.94-30,41.72-35.46,50.33-38.07,35.53-8.6,51.92-3.91,40.9,16.69,44,20.6-1,18.25-4.43,21.12-14.32,7.3-18.64,7.3S260.67,215,254.41,215.24,196.27,271.3,190.79,275s-22.42,6.51-27.9,2.08S159,257.48,159,257.48Z"/><path class="cls-7" d="M175,239.81c-4.44,4.22-17.12,13.46-24.08,24.06-4.38,6.67-6.49,13.88-2.87,20.72,9.39,17.73,27.9,11.74,33.64,7.3s16.16-23.47,16.16-23.47-21.64,9.92-28.42,6.26S162,252.13,175,239.81Z"/></g></svg>