<svg id="Laag_1" data-name="Laag 1" xmlns="http://www.w3.org/2000/svg" xmlns:xlink="http://www.w3.org/1999/xlink" viewBox="0 0 486.38 480.26"><defs><style>.cls-1,.cls-8{fill:none;}.cls-15,.cls-2{fill:#fff;}.cls-3{fill:url(#Naamloos_verloop_32);}.cls-4{fill:#c17333;}.cls-5{clip-path:url(#clip-path);}.cls-6{fill:#5d9120;}.cls-7{fill:#94d342;}.cls-8{stroke:#94d342;stroke-width:2px;}.cls-15,.cls-8{stroke-miterlimit:10;}.cls-9{fill:#466819;}.cls-10{fill:#e89442;}.cls-11{fill:#bababa;}.cls-12{fill:#999;}.cls-13{fill:#efefef;}.cls-14{clip-path:url(#clip-path-2);}.cls-15{stroke:#bababa;}.cls-16{fill:#e2e2e2;}.cls-17{clip-path:url(#clip-path-3);}.cls-18{fill:#c9a293;}.cls-19{fill:#f4ccbd;}.cls-20{fill:#d8491d;}.cls-21{clip-path:url(#clip-path-4);}.cls-22{fill:#a7e4ea;}.cls-23{fill:#965f39;}.cls-24{fill:#543a29;}.cls-25{clip-path:url(#clip-path-5);}.cls-26{fill:#e0a7e8;}.cls-27{fill:#23d61e;}.cls-28{fill:#fce68b;}.cls-29{fill:#e5c839;}.cls-30{clip-path:url(#clip-path-6);}.cls-31{fill:#ef7216;}.cls-32{fill:#2065d3;}.cls-33{clip-path:url(#clip-path-7);}.cls-34{fill:#aaa;}.cls-35{fill:#282421;}</style><linearGradient id="Naamloos_verloop_32" x1="-6.47" y1="66.1" x2="341.03" y2="413.6" gradientUnits="userSpaceOnUse"><stop offset="0.1" stop-color="#933a8f"/><stop offset="1" stop-color="#2fc3f5"/></linearGradient><clipPath id="clip-path"><path class="cls-1" d="M83.58,434.44c-1.51-27.13-23.13-48.35-34-73.24-20.31-46.4-1.86-100.69-11.38-150.43-4.7-24.59-16.1-47.29-25-70.67S-2.38,91.21,3.1,66.78C6.16,53.14,13.29,40,24.68,31.89s26.05-10.58,39.83-8.57,26.66,8.21,38.1,16.13c10.42,7.22,20,16.15,25.75,27.44C136,81.8,136.18,99.26,135.73,116c-1.66,61.34-10.37,122.25-15,183.44-2.06,27.3-3.09,55.89,8.24,80.81Z"/></clipPath><clipPath id="clip-path-2"><polygon class="cls-2" points="269.91 356.77 325.76 385.22 437.43 328.3 381.59 299.84 269.91 356.77"/></clipPath><clipPath id="clip-path-3"><polygon class="cls-1" points="371.35 175.63 371.35 35.58 156.12 145.29 156.12 285.36 371.35 175.63"/></clipPath><clipPath id="clip-path-4"><polygon class="cls-1" points="209.93 258.8 156.12 286.21 156.12 242.09 209.93 214.68 209.93 258.8"/></clipPath><clipPath id="clip-path-5"><polygon class="cls-1" points="317.55 203.96 263.74 231.38 263.74 187.26 317.55 159.84 317.55 203.96"/></clipPath><clipPath id="clip-path-6"><polygon class="cls-1" points="371.35 176.55 317.55 203.96 317.55 159.84 371.35 132.42 371.35 176.55"/></clipPath><clipPath id="clip-path-7"><polygon class="cls-1" points="263.74 231.38 209.93 258.8 209.93 214.68 263.74 187.26 263.74 231.38"/></clipPath></defs><path class="cls-3" d="M17.82,408.47V71.22c0-52.62,55.08-86.67,101.54-62.77L447.15,177.09c50.81,26.14,50.8,99.39,0,125.53L119.35,471.24C72.9,495.13,17.82,461.08,17.82,408.47Z"/><path class="cls-4" d="M49.44,398.18v-21.9c0-3.21,15.54-10.93,43-10.93s42.94,7.09,42.94,10.93v21.91s-18.94-11-42.95-11S49.44,398.18,49.44,398.18Z"/><g class="cls-5"><rect class="cls-6" x="-108.97" y="16.35" width="288.03" height="454.35" transform="translate(21.69 489.2) rotate(-168.7)"/><path class="cls-7" d="M124.07,423.89c-14.51-15.9-25.61-34.71-33.49-54.7A246,246,0,0,1,75.3,305.13c-2.72-25.55-2.19-51.34-.21-76.92,1-12.72,2.33-25.41,3.82-38.08,1.52-12.85,3.23-25.7,3.91-38.63,1.2-22.77-1.08-46.65-12.62-66.78a77.49,77.49,0,0,0-4.45-6.87c-1.68-2.33-5.59-.08-3.89,2.27C75.41,98.84,79.08,122.36,78.57,145c-.29,13-1.84,25.83-3.38,38.68s-3,25.59-4.09,38.42c-2.21,25.57-3.1,51.34-.89,76.95,1.94,22.36,6.25,44.56,13.9,65.7,7.35,20.33,17.7,39.59,31.5,56.28q2.56,3.09,5.28,6.06c2,2.15,5.13-1,3.18-3.18Z"/><path class="cls-8" d="M150.28,47.88c-4.16,2.78-72.62,62.49-72.62,62.49"/><path class="cls-8" d="M200.48,96.41c-10.77,7-120.48,27.7-120.48,27.7"/><path class="cls-8" d="M-45.54,128.55C-24,140.07,78.69,173,78.69,173"/><line class="cls-8" x1="71.36" y1="255.6" x2="191.51" y2="195.5"/><line class="cls-8" x1="73.94" y1="312.57" x2="-54.87" y2="225.77"/><line class="cls-8" x1="76.7" y1="329.4" x2="-69.38" y2="283.93"/><line class="cls-8" x1="87.3" y1="366.89" x2="-25.27" y2="360.15"/><line class="cls-8" x1="71.96" y1="241.41" x2="-19.22" y2="195.44"/><path class="cls-8" d="M74.56,99.69c-5.88-1-144-39.42-144-39.42"/><path class="cls-8" d="M79,339.94c9.54-1.28,91.91-41.46,91.91-41.46"/><line class="cls-8" x1="82.91" y1="354.07" x2="160.26" y2="319.37"/><path class="cls-9" d="M135.15,367.66a81.21,81.21,0,0,1-82.21,4.52c-1.13-.58-8,8-8.63,9.08a3.67,3.67,0,0,0-.25,2.39,136.19,136.19,0,0,1-.76,37.18c15.57.91,31.16-1,46.65-2.85l61.09-7.4a152,152,0,0,0-9.31-48.68Z"/></g><path class="cls-10" d="M131.64,387.32v40c0,5.86-14.21,20-39.26,20s-39.24-13-39.24-20v-40s17.3,20,39.25,20S131.64,387.32,131.64,387.32Z"/><path class="cls-4" d="M131.64,382.55v20c0,2.93-14.22,10-39.28,10s-39.26-6.49-39.26-10v-20a86.59,86.59,0,0,0,39.27,10A86.66,86.66,0,0,0,131.64,382.55Z"/><path class="cls-10" d="M135.32,375.91v21.9c0,3.2-15.55,10.93-43,10.93s-42.94-7.09-42.94-10.93V375.9s18.93,11,43,11S135.32,375.91,135.32,375.91Z"/><path class="cls-11" d="M273.2,276.1h0L219,303.18l38.25,19.33a9.92,9.92,0,0,0,9,0l44.25-22.56a2.72,2.72,0,0,0,0-4.84Z"/><polygon class="cls-12" points="269.91 264.48 294.44 214.94 237.5 243.96 216.01 291.53 269.91 264.47 269.91 264.48"/><polygon class="cls-11" points="218.97 303.18 218.97 303.18 218.97 303.18 218.97 303.18"/><path class="cls-12" d="M266,272.42l3-1.53a11.23,11.23,0,0,1,.91-6.41L266,272.42Z"/><path class="cls-11" d="M273.2,276.1a7.38,7.38,0,0,1-4.2-5.21l-3,1.53Z"/><path class="cls-11" d="M273.2,276.1,266,272.42l-2.93,1.49,2.93-1.49h0L215.21,298.3a6.92,6.92,0,0,0,3.76,4.88h0L273.2,276.1Z"/><path class="cls-12" d="M269.91,264.48h0L216,291.53a11.25,11.25,0,0,0-.8,6.77L266,272.42Z"/><path class="cls-12" d="M266,272.42l3-1.53h0l-3,1.53Z"/><path class="cls-12" d="M263.05,273.91l2.93-1.49h0Z"/><path class="cls-13" d="M379.52,33.67a8.39,8.39,0,0,0-12.2-7.47L157.7,133A17.86,17.86,0,0,0,148,149V289.61l231.56-118Z"/><path d="M379.52,33.67a8.39,8.39,0,0,0-12.2-7.47L157.7,133A17.86,17.86,0,0,0,148,149V289.61l231.56-118Z"/><path class="cls-11" d="M148,289.61V308a8.39,8.39,0,0,0,12.2,7.47L369.77,208.58a17.87,17.87,0,0,0,9.75-15.91v-21.1Z"/><polygon class="cls-11" points="269.91 360.11 325.76 388.56 437.43 331.64 437.43 328.3 269.91 356.77 269.91 360.11"/><polygon class="cls-2" points="269.91 356.77 325.76 385.22 437.43 328.3 381.59 299.84 269.91 356.77"/><g class="cls-14"><line class="cls-15" x1="384.6" y1="298.3" x2="267.94" y2="357.77"/><line class="cls-15" x1="393.84" y1="303.08" x2="277.16" y2="362.56"/><line class="cls-15" x1="403.08" y1="307.86" x2="286.37" y2="367.35"/><line class="cls-15" x1="412.31" y1="312.64" x2="295.58" y2="372.14"/><line class="cls-15" x1="421.55" y1="317.42" x2="304.8" y2="376.93"/><line class="cls-15" x1="430.79" y1="322.19" x2="314.01" y2="381.72"/><line class="cls-15" x1="440.02" y1="326.97" x2="323.23" y2="386.51"/><line class="cls-15" x1="328.29" y1="386.51" x2="267.13" y2="355.35"/><line class="cls-15" x1="336.27" y1="382.45" x2="275.12" y2="351.29"/><line class="cls-15" x1="344.25" y1="378.38" x2="283.1" y2="347.23"/><line class="cls-15" x1="352.23" y1="374.32" x2="291.09" y2="343.17"/><line class="cls-15" x1="360.21" y1="370.26" x2="299.08" y2="339.11"/><line class="cls-15" x1="356.22" y1="360.1" x2="307.07" y2="335.04"/><line class="cls-15" x1="364.2" y1="356.03" x2="315.05" y2="330.98"/><line class="cls-15" x1="372.18" y1="351.97" x2="323.04" y2="326.92"/><line class="cls-15" x1="380.16" y1="347.9" x2="331.03" y2="322.86"/><line class="cls-15" x1="400.12" y1="349.94" x2="339.01" y2="318.8"/><line class="cls-15" x1="408.1" y1="345.87" x2="347" y2="314.74"/><line class="cls-15" x1="416.08" y1="341.81" x2="354.99" y2="310.68"/><line class="cls-15" x1="424.06" y1="337.74" x2="362.97" y2="306.62"/><line class="cls-15" x1="432.04" y1="333.68" x2="370.96" y2="302.56"/><line class="cls-15" x1="440.02" y1="329.62" x2="378.95" y2="298.49"/></g><path class="cls-11" d="M392.53,257.27c-.77,2.27-1.45,6.17,2,8.1s14,7.87,18.57,8.86,7.16-4.32,7.16-4.32-14.2-9.35-14.38-9.39S392.53,257.27,392.53,257.27Z"/><path class="cls-2" d="M396,264.87h0a13,13,0,0,1,5.21,2.49l3.75,3a22.83,22.83,0,0,0,24.53,2.44h0a7.45,7.45,0,0,0,1.23-12.47l-2.51-2a33.43,33.43,0,0,0-13.37-6.4h0a28.56,28.56,0,0,0-19.29,2.4l-.81.41A5.44,5.44,0,0,0,396,264.87Z"/><polygon class="cls-16" points="156.12 242.09 156.12 145.29 263.74 90.44 263.74 187.26 156.12 242.09"/><g class="cls-17"><path class="cls-11" d="M197.23,183.84c-2.57,1.8-5.39,2-6.8.54-.54-.57-.89-1.37-1.55-1.79-1-.63-2.47-.39-3.47-1-1.74-1-1.44-4.11-1-6.86a98.69,98.69,0,0,1,3.48-16.54,48.82,48.82,0,0,1,9-16.52c3.87-4.52,8.76-8,13.3-9.37s8.62-.42,10.76,2.6c3,4.25,2,11.7,2.79,17.75.5,3.78,1.73,7.1,1.72,11.17a19.32,19.32,0,0,1-5.24,13c-3.31,3.34-7.28,4.45-10.82,5.2Z"/><path class="cls-18" d="M215.81,173.16a30.57,30.57,0,0,1-1.94-7.37l-16.76,8.55a59.31,59.31,0,0,1-1,6.73,7.31,7.31,0,0,0,1.37-.1A35.67,35.67,0,0,0,215.81,173.16Z"/><path class="cls-19" d="M231.76,173.3s-11.18,3.25-14,2.2a4.31,4.31,0,0,1-2-2.34A35.67,35.67,0,0,1,197.5,181a7.31,7.31,0,0,1-1.37.1c-.81,3.88-2.09,7.39-4,9.37-3.07,3.11-12.3,10-12.3,10s2,8.56,2.52,9.39,19.28-1.49,21.79-2.19,23.76-12.1,23.76-12.1,2.51-8.52,3.91-10.63S231.76,173.3,231.76,173.3Z"/><ellipse class="cls-19" cx="205.91" cy="157.52" rx="22.52" ry="13.33" transform="translate(-16.97 289.95) rotate(-68.13)"/><path class="cls-11" d="M217.19,137.64c-1.44,2.89-1.92,5.91-1.29,8.1,1,3.69,4.92,4.8,6,8.45v-10.7l-1.47-4.57Z"/><path class="cls-20" d="M189.06,193.15c1.93,5.49,10.87,6.5,18.44,2.7s14.08-13.8,15.13-20.45c9.13-2.1,15-3.75,15-3.75s7.57-2.68,9.81,1.86,4.64,19.7,4.64,19.7l-88.24,45s.86-22.22,4.3-27.38S189.06,193.15,189.06,193.15Z"/><path class="cls-11" d="M189.06,161.46a17.43,17.43,0,0,1,5.32-6.75,38.89,38.89,0,0,1,6.82-4.15l7.78-4c2.85-1.46,5.91-3.11,8.17-6A10.16,10.16,0,0,0,219,137l-7.26-3-7,2.64-7.1,6.07c-.26.21-3.64,5.57-3.64,5.57Z"/><polygon class="cls-2" points="371.35 32.48 263.74 87.31 263.74 184.76 371.35 129.93 371.35 32.48"/><polygon class="cls-20" points="357.13 61.95 269.88 106.4 269.88 94.8 357.13 50.34 357.13 61.95"/><polygon class="cls-20" points="371.35 132.62 263.74 187.46 263.74 173 371.35 118.17 371.35 132.62"/><ellipse class="cls-20" cx="272.84" cy="115.75" rx="3.84" ry="2.33" transform="translate(17.06 265.47) rotate(-53.33)"/><ellipse class="cls-20" cx="272.84" cy="128.25" rx="3.84" ry="2.33" transform="translate(7.03 270.51) rotate(-53.33)"/><ellipse class="cls-20" cx="272.84" cy="140.76" rx="3.84" ry="2.33" transform="translate(-3 275.55) rotate(-53.33)"/><ellipse class="cls-20" cx="272.84" cy="153.27" rx="3.84" ry="2.33" transform="translate(-13.04 280.58) rotate(-53.33)"/><polygon points="334.4 87.4 280.76 114.73 280.76 108.69 334.4 81.36 334.4 87.4"/><polygon points="330.07 102.11 280.76 127.24 280.76 121.2 330.07 96.07 330.07 102.11"/><polygon points="352.57 103.16 280.76 139.75 280.76 133.71 352.57 97.12 352.57 103.16"/><polygon points="345.75 119.15 280.76 152.26 280.76 146.22 345.75 113.1 345.75 119.15"/><g class="cls-21"><polygon class="cls-22" points="211.32 260.09 155.06 288.76 155.06 241.77 211.32 213.1 211.32 260.09"/><path class="cls-18" d="M188.34,258.26l-2.63-6.11-8.4,4.28-.75,7.69C180.11,264,184.3,261.52,188.34,258.26Z"/><path class="cls-19" d="M188.34,258.26c-4,3.26-8.23,5.75-11.78,5.86l-.19,2s-8,6.36-6.7,6.47,11.93-3.27,11.69-2.9,6.24-2.92,7.08-3.6,4.66-4.42,4.66-4.42l3.24-3.43-7.9.3Z"/><path class="cls-20" d="M203.54,262.05l-.7-1.55c-1.58-3.53-5.57-4.49-10.18-2.46l-.76.34a24.72,24.72,0,0,1-8.63,7.76c-5.45,2.78-9.12,1.77-9.12,1.77l-1.71,1.17a23.4,23.4,0,0,0-9.39,13.6h0Z"/><ellipse class="cls-19" cx="183.02" cy="248.69" rx="12.48" ry="7.61" transform="translate(-122.11 296.03) rotate(-62.47)"/><path class="cls-23" d="M188.44,241.43c1.65,1.46,3.14,5.76,3.14,5.76s1.12-4.62,0-8.28S188.44,241.43,188.44,241.43Z"/><path class="cls-23" d="M174.73,246.76c-1,3.27-.58,8.21-.58,8.21s1-6.7,3.62-9Z"/><path class="cls-24" d="M179.38,239.34c2.28-1.67,4.63-2.38,7-3.48a14.44,14.44,0,0,0,6.46-5.51l0,5.5a6.08,6.08,0,0,1-.25,2.07,6.32,6.32,0,0,1-1.12,1.92,11.87,11.87,0,0,1-5.75,3.75,31.77,31.77,0,0,0-5.86,2c-1.49.79-3,2-4.43,2.75-.43.22-.89.41-1.19.22s-.32-.57-.32-1a8.86,8.86,0,0,1,4.26-6.89Z"/></g><g class="cls-25"><polygon class="cls-26" points="318.94 205.26 262.68 233.93 262.68 186.94 318.94 158.27 318.94 205.26"/><path class="cls-18" d="M296,203.43l-2.62-6.11-8.4,4.28-.75,7.69C287.72,209.18,291.92,206.69,296,203.43Z"/><path class="cls-19" d="M296,203.43c-4,3.26-8.23,5.75-11.77,5.86l-.19,2s-8,6.35-6.7,6.47,11.92-3.28,11.69-2.9,6.24-2.93,7.08-3.61,4.66-4.41,4.66-4.41l3.24-3.44-7.9.3Z"/><path class="cls-27" d="M311.16,207.22l-.7-1.55c-1.58-3.53-5.57-4.5-10.18-2.47l-.76.34a24.67,24.67,0,0,1-8.64,7.77c-5.44,2.78-9.11,1.77-9.11,1.77l-1.71,1.16a23.38,23.38,0,0,0-9.39,13.61h0Z"/><ellipse class="cls-19" cx="290.64" cy="193.86" rx="12.48" ry="7.61" transform="translate(-15.61 361.98) rotate(-62.47)"/><path class="cls-28" d="M296.06,186.59c1.64,1.46,3.13,5.77,3.13,5.77s1.13-4.63,0-8.28S296.06,186.59,296.06,186.59Z"/><path class="cls-28" d="M282.35,191.92c-1,3.28-.58,8.21-.58,8.21s1-6.69,3.61-9Z"/><path class="cls-29" d="M287,184.5c2.27-1.67,4.62-2.38,6.95-3.47a14.58,14.58,0,0,0,6.46-5.52V181a6,6,0,0,1-.24,2.07,6.4,6.4,0,0,1-1.13,1.93,11.87,11.87,0,0,1-5.75,3.75,33,33,0,0,0-5.86,2c-1.48.8-2.94,2-4.42,2.76-.43.22-.9.41-1.19.22s-.32-.58-.32-1a8.91,8.91,0,0,1,4.25-6.9Z"/></g><g class="cls-30"><polygon class="cls-2" points="372.75 177.84 316.49 206.51 316.49 159.52 372.75 130.85 372.75 177.84"/><path class="cls-31" d="M357.83,178.84a6.61,6.61,0,0,1-1.18-3.33c-.88-6.18.63-13.79-.25-20a9.77,9.77,0,0,0-1.11-3.66c-1.31-2.14-4.09-2.54-6.75-.7-1.16.81-2.26,2-3.42,2.79-2.56,1.79-5.37,1.79-7.7,4.34A18,18,0,0,0,335,162.2a27.44,27.44,0,0,0-2.29,5.62,18.15,18.15,0,0,0-.45,4.25c0,3.42.46,6.61,0,10.2s-1.8,7.73-1.07,10.68Z"/><path class="cls-18" d="M349.76,176l-2.62-6.11-8.4,4.28-.75,7.69C341.53,181.76,345.73,179.27,349.76,176Z"/><path class="cls-19" d="M349.76,176c-4,3.26-8.23,5.75-11.77,5.86l-.2,2s-8,6.36-6.69,6.47,11.92-3.27,11.69-2.9,6.24-2.92,7.08-3.61,4.66-4.41,4.66-4.41l3.24-3.43-7.9.29Z"/><path class="cls-32" d="M365,179.8l-.7-1.55c-1.58-3.53-5.57-4.5-10.18-2.46l-.77.33a24.59,24.59,0,0,1-8.63,7.77c-5.44,2.78-9.12,1.77-9.12,1.77l-1.7,1.17a23.36,23.36,0,0,0-9.39,13.6h0Z"/><ellipse class="cls-19" cx="344.45" cy="166.44" rx="12.48" ry="7.61" transform="translate(37.64 394.95) rotate(-62.47)"/><path class="cls-31" d="M349.37,153.25a6.18,6.18,0,0,0,.23,4.48,34.1,34.1,0,0,0,2,3.22C354,165,353.75,171.2,353,177.32a14.15,14.15,0,0,0-.18,3.45c.14,1,.62,1.92,1.54,2.1a2.21,2.21,0,0,0,2.17-1.24,2.43,2.43,0,0,0,.2-1,16.21,16.21,0,0,0-.51-4,88.38,88.38,0,0,1-1.53-16.53,16.43,16.43,0,0,0-.41-4.48,3,3,0,0,0-2.66-2.39Z"/><path class="cls-31" d="M349.21,153.73c-.34,1.7-1.92,3.37-3.32,4.8-3,3-5.86,6.16-8.64,9.41a18.23,18.23,0,0,0-2,2.68,9.15,9.15,0,0,0-.84,6.32c.44,2.36,1.22,4.48,1.59,6.88a23.17,23.17,0,0,1,.26,4.23,4.54,4.54,0,0,1-.52,2.21,6.64,6.64,0,0,1-1.33,1.52,40.25,40.25,0,0,1-4.45,3.53,1.33,1.33,0,0,1-.67.29c-.36,0-.32-.59-.2-1.06,1.09-4.36,4.12-9,4.92-13.27.52-2.76.05-5.1-.23-7.5a14.9,14.9,0,0,1,.93-8,29.33,29.33,0,0,1,2.65-4.47,19.6,19.6,0,0,1,3.23-4l5.91-3.41Z"/></g><g class="cls-33"><polygon class="cls-34" points="265.13 232.68 208.87 261.34 208.87 214.35 265.13 185.69 265.13 232.68"/><path class="cls-35" d="M250.21,233.68a6.52,6.52,0,0,1-1.17-3.34c-.88-6.18.63-13.79-.25-20a9.78,9.78,0,0,0-1.12-3.65c-1.3-2.14-4.08-2.55-6.75-.7-1.16.81-2.25,2-3.42,2.79-2.56,1.79-5.37,1.79-7.7,4.34a17.45,17.45,0,0,0-2.45,3.89,26.67,26.67,0,0,0-2.29,5.62,18.09,18.09,0,0,0-.46,4.24c0,3.42.46,6.61,0,10.2s-1.8,7.73-1.07,10.69Z"/><path class="cls-18" d="M242.14,230.85l-2.62-6.11-8.4,4.28-.75,7.69C233.91,236.6,238.11,234.11,242.14,230.85Z"/><path class="cls-19" d="M242.14,230.85c-4,3.26-8.23,5.75-11.77,5.86l-.19,2s-8,6.35-6.7,6.47,11.93-3.28,11.69-2.91,6.24-2.92,7.08-3.6,4.66-4.41,4.66-4.41l3.24-3.44-7.9.3Z"/><path class="cls-2" d="M257.35,234.63l-.7-1.55c-1.58-3.53-5.57-4.49-10.18-2.46l-.76.34a24.8,24.8,0,0,1-8.63,7.77c-5.45,2.77-9.12,1.77-9.12,1.77l-1.71,1.16a23.39,23.39,0,0,0-9.39,13.6h0Z"/><ellipse class="cls-19" cx="236.83" cy="221.27" rx="12.48" ry="7.61" transform="translate(-68.86 329) rotate(-62.47)"/><path class="cls-35" d="M241.75,208.08a6.17,6.17,0,0,0,.23,4.48,36.45,36.45,0,0,0,2,3.23c2.37,4.07,2.14,10.24,1.37,16.37a14.67,14.67,0,0,0-.19,3.45,1.92,1.92,0,0,0,3.71.86,2.48,2.48,0,0,0,.2-1,16.28,16.28,0,0,0-.51-4A87.49,87.49,0,0,1,247.05,215a16.86,16.86,0,0,0-.42-4.48,3,3,0,0,0-2.66-2.38Z"/><path class="cls-35" d="M241.6,208.56c-.35,1.71-1.93,3.38-3.33,4.8-3,3-5.86,6.16-8.63,9.41a16.54,16.54,0,0,0-2,2.69,9,9,0,0,0-.84,6.32c.43,2.35,1.21,4.47,1.59,6.87a23.25,23.25,0,0,1,.25,4.23,4.5,4.5,0,0,1-.52,2.21,6.64,6.64,0,0,1-1.33,1.52,39.11,39.11,0,0,1-4.45,3.53,1.22,1.22,0,0,1-.66.29c-.37,0-.32-.59-.21-1.05,1.09-4.37,4.13-9,4.93-13.28.51-2.76,0-5.1-.23-7.5a14.75,14.75,0,0,1,.92-7.94,29.42,29.42,0,0,1,2.65-4.48,19.88,19.88,0,0,1,3.23-4l5.91-3.41Z"/></g></g></svg>