<svg id="Laag_1" data-name="Laag 1" xmlns="http://www.w3.org/2000/svg" xmlns:xlink="http://www.w3.org/1999/xlink" viewBox="0 0 708.66 708.66"><defs><style>.cls-1{fill:url(#Naamloos_verloop_8);}.cls-2{fill:#fff;}</style><linearGradient id="Naamloos_verloop_8" x1="76.88" y1="208.81" x2="703.25" y2="538.78" gradientUnits="userSpaceOnUse"><stop offset="0" stop-color="#913d8a"/><stop offset="0.18" stop-color="#874c95"/><stop offset="0.54" stop-color="#6e72b1"/><stop offset="1" stop-color="#47addd"/></linearGradient></defs><circle class="cls-1" cx="353.91" cy="354.75" r="353.91"/><path class="cls-2" d="M468.6,431.29a194.23,194.23,0,0,1-61.27,29.8L353.9,553.24l-53.4-92.15a194.54,194.54,0,0,1-61.27-29.8,205.2,205.2,0,0,0-90.71,170.42H559.31A205.24,205.24,0,0,0,468.6,431.29Z"/><path class="cls-2" d="M320.59,434.29l33.32,57.48,33.31-57.48a164.94,164.94,0,1,0-66.63,0ZM296.35,272.72V222.6c0-15.08,17.85-23.93,30.88-15.32l34,22.52,17,11.23,24.77,16.38a18.14,18.14,0,0,1,0,30.63l-41.77,27.61-34,22.51c-13,8.61-30.88-.24-30.88-15.32Z"/></svg>