<svg id="Laag_1" data-name="Laag 1" xmlns="http://www.w3.org/2000/svg" xmlns:xlink="http://www.w3.org/1999/xlink" viewBox="0 0 708.66 708.66"><defs><style>.cls-1{fill:url(#Naamloos_verloop_8);}.cls-2{fill:#fff;}</style><linearGradient id="Naamloos_verloop_8" x1="77.3" y1="208.81" x2="703.67" y2="538.78" gradientUnits="userSpaceOnUse"><stop offset="0" stop-color="#913d8a"/><stop offset="0.18" stop-color="#874c95"/><stop offset="0.54" stop-color="#6e72b1"/><stop offset="1" stop-color="#47addd"/></linearGradient></defs><circle class="cls-1" cx="354.33" cy="354.75" r="353.91"/><path class="cls-2" d="M490,429.55c-24.87,2.59-49.91,4.52-74.9,5.72L354.33,541.86l-60.7-106.59c-25.11-1.2-50.22-3.09-74.94-5.72a218.72,218.72,0,0,0-83.53,172.16H573.5A218.72,218.72,0,0,0,490,429.55Z"/><path class="cls-2" d="M220,396.59q46.58,5,93.13,6.54l41.18,72.26,41.17-72.26q46.56-1.53,93.13-6.54c24.16-2.86,50.07-28.31,54.69-55.76a541.72,541.72,0,0,0,0-170c-4.62-27.45-30.52-52.91-54.69-55.77A1248.47,1248.47,0,0,0,220,115c-24.16,2.86-50.07,28.32-54.69,55.77a541.72,541.72,0,0,0,0,170C170,368.28,195.87,393.73,220,396.59Zm72.88-146V197.13c0-16.09,19-25.54,32.95-16.34l36.34,24,13.59,9,31,20.48a19.36,19.36,0,0,1,0,32.69L362.2,296.43l-36.34,24c-13.9,9.19-32.95-.25-32.95-16.34Z"/></svg>