<svg id="Laag_1" data-name="Laag 1" xmlns="http://www.w3.org/2000/svg" viewBox="0 0 708.66 708.66"><defs><style>.cls-1{fill:#913d8a;}.cls-2{fill:#fff;}</style></defs><path class="cls-1" d="M649,708.66H59.65c0-101.84,51.65-191.56,130.14-244.51a279,279,0,0,0,87.9,42.75L354.3,639.12,431,506.9a278.59,278.59,0,0,0,87.91-42.75C597.36,517.1,649,606.87,649,708.66Z"/><path class="cls-1" d="M591,236.64C591,106,485,0,354.32,0S117.68,106,117.68,236.64c0,114.32,81.06,209.71,188.84,231.82l47.8,82.46,47.8-82.46C509.9,446.35,591,351,591,236.64Z"/><path class="cls-2" d="M424.82,214.67c16.12,10.65,16.12,33.29,0,44L364.9,298.23,316,330.53c-18.69,12.36-44.3-.34-44.3-22V164.73c0-21.63,25.61-34.33,44.3-22l48.86,32.3,24.39,16.12Z"/></svg>