<svg id="Laag_1" data-name="Laag 1" xmlns="http://www.w3.org/2000/svg" xmlns:xlink="http://www.w3.org/1999/xlink" viewBox="0 0 708.66 708.66"><defs><style>.cls-1{fill:url(#Naamloos_verloop_13);}.cls-2{fill:url(#Naamloos_verloop_12);}.cls-3{fill:#fff;}</style><linearGradient id="Naamloos_verloop_13" x1="-47.1" y1="356.9" x2="508.45" y2="728.22" gradientUnits="userSpaceOnUse"><stop offset="0" stop-color="#47addd"/><stop offset="0.35" stop-color="#6886be"/><stop offset="0.75" stop-color="#8a5d9d"/><stop offset="0.9" stop-color="#8e4991"/><stop offset="1" stop-color="#913d8a"/></linearGradient><linearGradient id="Naamloos_verloop_12" x1="126.72" y1="60.26" x2="682.27" y2="431.57" gradientUnits="userSpaceOnUse"><stop offset="0" stop-color="#47addd"/><stop offset="0.11" stop-color="#53a2d4"/><stop offset="0.56" stop-color="#8178b1"/><stop offset="0.6" stop-color="#8372ad"/><stop offset="0.86" stop-color="#8d4c94"/><stop offset="1" stop-color="#913d8a"/></linearGradient></defs><path class="cls-1" d="M668.78,708.66H39.88a313.84,313.84,0,0,1,119.84-247c35.47,3.78,71.49,6.5,107.52,8.22l87.09,152.92,87.15-152.92c35.86-1.72,71.77-4.5,107.46-8.22A313.84,313.84,0,0,1,668.78,708.66Z"/><path class="cls-2" d="M625.49,90.41c-6.63-39.38-43.8-75.9-78.47-80a1789.84,1789.84,0,0,0-385.38,0C127,14.51,89.8,51,83.17,90.41a777.29,777.29,0,0,0,0,244c6.63,39.38,43.8,75.91,78.47,80q66.81,7.22,133.62,9.38l59.07,103.67L413.4,423.75q66.81-2.21,133.62-9.38c34.67-4.1,71.84-40.63,78.47-80A777.29,777.29,0,0,0,625.49,90.41Z"/><path class="cls-3" d="M429.57,181.48c17.19,11.37,17.19,35.53,0,46.9l-63.95,42.28-52.14,34.47c-20,13.18-47.28-.37-47.28-23.45V128.19c0-23.08,27.33-36.64,47.28-23.45l52.14,34.47,19.48,12.88Z"/></svg>